<svg xmlns="http://www.w3.org/2000/svg" viewBox="0 0 48 48"><path fill="#4285F4" d="M24 9.5c3.6 0 6.5 1.2 8.5 2.9l6.3-6.3C34.6 3 29.7 1 24 1 14.9 1 7.3 6.6 4 14.7l7.7 6C13.7 14 18.4 9.5 24 9.5z"/><path fill="#34A853" d="M46.5 24c0-1.6-.2-3.1-.6-4.6H24v9.1h12.9c-.5 2.8-2.1 5.1-4.5 6.6l7 5.4C43.6 37.8 46.5 31.4 46.5 24z"/><path fill="#FBBC05" d="M11.7 29.1c-1.1-3.2-1.1-6.6 0-9.8l-7.7-6C.9 16.2 0 20.9 0 24s.9 7.8 4 11.7l7.7-6.6z"/><path fill="#EA4335" d="M24 46.5c6.9 0 12.7-2.3 17.1-6.1l-7.7-5.4c-2 1.4-4.6 2.4-9.4 2.4-5.6 0-10.3-4.5-11.9-10.4l-7.7 6C7.3 41.4 14.9 46.5 24 46.5z"/><path fill="none" d="M0 0h48v48H0z"/></svg>